<svg xmlns="http://www.w3.org/2000/svg" xmlns:xlink="http://www.w3.org/1999/xlink" width="34" height="24"><defs><path id="a" d="M16.58 0h16.58v23.43H0V0h16.58z"/></defs><g fill="none" fill-rule="evenodd"><mask id="b" fill="#fff"><use xlink:href="#a"/></mask><path fill="#F01414" d="M29.83 0H3.33A3.32 3.32 0 000 3.34v16.72a3.35 3.35 0 003.33 3.37h26.5a3.35 3.35 0 003.33-3.37V3.34A3.32 3.32 0 0029.83 0" mask="url(#b)"/><path fill="#FFF" d="M30.74 20.06c0 .53-.39.96-.91.96H3.33c-.52 0-.9-.43-.9-.96V3.34c0-.54.38-.96.9-.96h26.5c.52 0 .91.42.91.96v16.72z"/><path fill="#F01414" d="M12.56 11.96c0-3.09-.31-5.5-3.61-5.5H8.2V16.9h1.3c1.93 0 3.05-1.56 3.05-4.94m-2.42 7.42H4.56V4.05h5.58c3.93 0 6.1 2.48 6.1 7.6 0 4.43-1.47 7.7-6.1 7.73m12.8-2.48h-1.49v-3.94h1.6c1.9 0 2.36 1.11 2.36 1.97 0 1.97-1.88 1.97-2.46 1.97zM21.46 6.42h1.15c1.64 0 2.29.57 2.29 1.84 0 1.01-.72 1.86-1.99 1.86h-1.45v-3.7zm4.43 4.94a3.77 3.77 0 002.66-3.57c0-.32-.07-3.74-4.34-3.74h-6.36v15.33h5.37c1.42 0 5.86 0 5.86-4.3 0-1.08-.44-3.11-3.2-3.72z"/></g></svg>