<?xml version="1.0" encoding="utf-8"?>
<!-- Generator: Adobe Illustrator 28.2.0, SVG Export Plug-In . SVG Version: 6.00 Build 0)  -->
<svg version="1.1" id="Ebene_1" xmlns="http://www.w3.org/2000/svg" xmlns:xlink="http://www.w3.org/1999/xlink" x="0px" y="0px"
	 width="33px" height="33px" viewBox="0 0 33 33" style="enable-background:new 0 0 33 33;" xml:space="preserve">
<style type="text/css">
	.st0{fill:#020204;}
</style>
<g>
	<polygon class="st0" points="20.55,5.98 19.21,5.98 19.21,6.34 20.26,6.34 22.93,17.18 9.29,17.18 11.96,6.34 13.02,6.34 
		13.02,5.98 11.67,5.98 8.72,17.62 23.5,17.62 	"/>
	<path class="st0" d="M18.7,1.09h-5.19c-0.29,0-0.53,0.24-0.53,0.53V6.7h0.39V1.61c0-0.08,0.06-0.14,0.14-0.14h0.97v3.67h-1.02
		l1.46,1.55h2.37l1.46-1.55h-1.02V1.48h0.97c0.08,0,0.14,0.06,0.14,0.14V6.7h0.39V1.61C19.23,1.32,18.99,1.09,18.7,1.09z"/>
	<path class="st0" d="M14.97,13.05h2.29c0.14,0,0.26-0.11,0.26-0.26c0-0.01,0-0.01,0-0.02l-0.09-1.5C17.42,11.12,17.29,11,17.13,11
		h-2.05c-0.15,0-0.28,0.12-0.29,0.28l-0.09,1.5c-0.01,0.14,0.1,0.27,0.24,0.28C14.95,13.05,14.96,13.05,14.97,13.05z"/>
	<path class="st0" d="M13.99,11h-2.06c-0.16,0.01-0.29,0.12-0.33,0.27l-0.3,1.51c-0.03,0.12,0.04,0.24,0.16,0.26
		c0.02,0.01,0.04,0.01,0.06,0.01h2.3c0.16,0,0.28-0.12,0.3-0.28l0.13-1.5c0.01-0.14-0.09-0.26-0.22-0.27C14.01,11,14,11,13.99,11z"
		/>
	<path class="st0" d="M15.06,10.52h2.1c0.11,0,0.21-0.09,0.21-0.2c0-0.01,0-0.01,0-0.02L17.3,9.1c-0.01-0.12-0.11-0.22-0.23-0.22
		h-1.91c-0.12,0-0.23,0.1-0.23,0.22l-0.07,1.2c-0.01,0.11,0.08,0.21,0.19,0.22C15.05,10.52,15.05,10.52,15.06,10.52z"/>
	<path class="st0" d="M14.23,8.88H12.3c-0.13,0-0.24,0.09-0.26,0.22l-0.24,1.21c-0.02,0.09,0.03,0.19,0.13,0.21
		c0.02,0,0.03,0.01,0.05,0.01h2.12c0.12,0,0.23-0.1,0.24-0.22l0.1-1.2c0.01-0.11-0.07-0.21-0.18-0.22
		C14.24,8.88,14.23,8.88,14.23,8.88z"/>
	<path class="st0" d="M20.25,10.52c0.1,0,0.18-0.07,0.18-0.17c0-0.02,0-0.03-0.01-0.05L20.18,9.1c-0.03-0.12-0.14-0.21-0.26-0.22H18
		c-0.11,0-0.2,0.09-0.2,0.2c0,0.01,0,0.02,0,0.02l0.1,1.2c0.01,0.12,0.12,0.22,0.24,0.22L20.25,10.52z"/>
	<path class="st0" d="M15.15,8.48h1.92c0.1,0,0.18-0.08,0.18-0.18c0,0,0-0.01,0-0.01L17.2,7.36c-0.01-0.11-0.1-0.19-0.2-0.19h-1.77
		c-0.11,0-0.2,0.09-0.2,0.19l-0.05,0.93c-0.01,0.1,0.07,0.19,0.17,0.19C15.14,8.48,15.15,8.48,15.15,8.48z"/>
	<path class="st0" d="M19.87,8.48c0.08,0,0.16-0.06,0.16-0.14c0-0.02,0-0.03,0-0.04l-0.19-0.93c-0.03-0.11-0.12-0.19-0.23-0.19
		h-1.78c-0.1,0-0.18,0.08-0.18,0.17c0,0.01,0,0.01,0,0.02l0.08,0.93c0.01,0.11,0.1,0.19,0.21,0.19L19.87,8.48z"/>
	<path class="st0" d="M14.4,7.17h-1.79c-0.11,0-0.21,0.08-0.23,0.19l-0.19,0.93c-0.02,0.08,0.03,0.16,0.11,0.19
		c0.01,0,0.03,0.01,0.04,0h1.94c0.11,0,0.2-0.08,0.21-0.19l0.08-0.93c0.01-0.1-0.06-0.18-0.16-0.19C14.41,7.17,14.41,7.17,14.4,7.17
		z"/>
	<path class="st0" d="M20.71,13.05c0.12,0.01,0.22-0.09,0.23-0.21c0-0.02,0-0.04-0.01-0.06l-0.3-1.51C20.59,11.11,20.45,11,20.29,11
		h-2.06c-0.14,0-0.25,0.11-0.25,0.25c0,0.01,0,0.02,0,0.03l0.13,1.5c0.02,0.15,0.14,0.27,0.3,0.28L20.71,13.05z"/>
	<path class="st0" d="M17.23,13.6h-2.24c-0.19,0-0.34,0.15-0.35,0.33l-0.11,1.9c-0.01,0.17,0.12,0.32,0.29,0.33
		c0.01,0,0.02,0,0.02,0h2.54c0.17,0,0.31-0.14,0.31-0.31c0-0.01,0-0.02,0-0.02l-0.11-1.9C17.57,13.75,17.42,13.61,17.23,13.6z"/>
	<path class="st0" d="M13.71,13.6h-2.26c-0.19,0.01-0.35,0.14-0.4,0.33l-0.38,1.91c-0.04,0.14,0.05,0.28,0.19,0.32
		c0.03,0.01,0.05,0.01,0.08,0.01h2.55c0.19,0,0.34-0.15,0.36-0.33l0.16-1.9c0.02-0.16-0.1-0.31-0.27-0.33
		C13.74,13.6,13.72,13.6,13.71,13.6z"/>
	<path class="st0" d="M21.16,13.93c-0.04-0.19-0.21-0.32-0.4-0.33h-2.25c-0.17,0-0.3,0.13-0.3,0.3c0,0.01,0,0.02,0,0.04l0.16,1.9
		c0.02,0.19,0.17,0.33,0.36,0.33h2.55c0.14,0.01,0.27-0.1,0.27-0.25c0-0.03,0-0.05-0.01-0.08L21.16,13.93z"/>
	<path class="st0" d="M7.18,23.4H6.26v5.24h0.92L7.18,23.4z M4.19,26.05c0.01,0.4-0.1,0.79-0.3,1.12c-0.25,0.43-0.7,0.71-1.19,0.73
		c-0.36-0.01-0.7-0.14-0.96-0.38c-0.37-0.37-0.48-0.95-0.48-1.51c0.01-0.79,0.23-1.24,0.61-1.58c0.22-0.21,0.51-0.33,0.82-0.33
		C3,24.11,3.3,24.22,3.55,24.42C4.22,24.98,4.19,26,4.19,26.05 M4.66,30.1c0.39-0.52,0.42-1.05,0.45-2.15L5.09,23.4H4.22v0.81
		c-0.12-0.18-0.26-0.35-0.42-0.49C3.44,23.43,3,23.28,2.54,23.3c-0.71,0-1.36,0.35-1.76,0.94c-0.36,0.54-0.54,1.17-0.52,1.82
		c-0.01,0.37,0.05,0.75,0.16,1.1C0.55,27.6,0.8,28,1.15,28.31c0.39,0.32,0.89,0.47,1.39,0.44c0.45-0.02,0.89-0.18,1.25-0.45
		c0.14-0.11,0.25-0.25,0.35-0.39l-0.01,0.72c-0.01,0.24-0.05,0.47-0.12,0.7c-0.05,0.15-0.13,0.28-0.23,0.4
		C3.53,30,3.21,30.15,2.59,30.17c-0.45,0-0.9-0.08-1.33-0.22c-0.18-0.07-0.35-0.15-0.52-0.25l-0.1,0.91
		c0.15,0.06,0.26,0.1,0.41,0.15c0.48,0.15,0.98,0.22,1.48,0.22c0.52,0.02,1.04-0.1,1.5-0.34C4.28,30.52,4.49,30.33,4.66,30.1
		 M6.2,22.15h1.01v-1.03H6.2L6.2,22.15z M10.6,24.18c0.22,0,0.43,0.04,0.63,0.13v-0.92c-0.05,0-0.33-0.04-0.56-0.04
		c-0.47-0.02-0.93,0.18-1.23,0.54c-0.09,0.13-0.18,0.26-0.26,0.4L9.14,23.4H8.25c0.03,0.66,0.05,1.11,0.05,1.76
		c0,0.76-0.01,1.29-0.01,2.05v1.43h0.95v-2.56c0.03-0.5,0.06-1.15,0.57-1.6C10.03,24.28,10.31,24.17,10.6,24.18 M15.42,25.97
		c0,0.57-0.18,1.41-0.88,1.81c-0.42,0.23-0.93,0.24-1.36,0.04c-0.09-0.05-0.18-0.1-0.26-0.17c-0.22-0.18-0.39-0.42-0.5-0.69
		c-0.13-0.32-0.19-0.67-0.17-1.01c-0.01-0.57,0.22-1.12,0.63-1.51c0.29-0.25,0.65-0.38,1.03-0.37c0.81,0.01,1.17,0.57,1.35,0.99
		C15.36,25.35,15.42,25.66,15.42,25.97 M15.62,28.06c0.53-0.57,0.81-1.33,0.77-2.11c-0.03-1.29-0.7-2.05-1.34-2.39
		c-1.23-0.57-2.69-0.15-3.43,0.98c-0.24,0.46-0.37,0.97-0.36,1.49c-0.01,1.05,0.36,1.67,0.81,2.11c0.1,0.09,0.22,0.17,0.33,0.24
		c0.42,0.26,0.91,0.38,1.41,0.35c0.38,0.01,0.76-0.06,1.11-0.2C15.18,28.42,15.42,28.26,15.62,28.06"/>
	<path class="st0" d="M17.2,24.51c0.03,1.01,0.03,1.73,0.03,2.75c0,1.27-0.02,2.54-0.03,3.81h0.94v-3.14
		c0.09,0.12,0.19,0.23,0.3,0.33c0.36,0.31,0.82,0.48,1.29,0.48c0.63,0,1.23-0.26,1.65-0.72c0.78-0.84,0.72-1.98,0.72-2.15
		c0-0.39-0.07-0.78-0.21-1.15c-0.3-0.89-1.15-1.47-2.08-1.45c-0.52-0.01-1.02,0.19-1.4,0.54c-0.12,0.11-0.23,0.24-0.32,0.38
		l-0.04-0.8h-0.88C17.19,23.82,17.19,24.1,17.2,24.51z M18.12,25.97c0-0.25,0.04-0.49,0.11-0.73c0.24-0.74,0.8-1.14,1.42-1.14
		c0.56,0.01,1.06,0.35,1.27,0.86c0.15,0.34,0.22,0.7,0.19,1.07c0,0.27-0.05,0.55-0.14,0.81c-0.34,0.97-1.11,1.07-1.37,1.07
		c-0.6,0-1.14-0.4-1.38-1.12C18.15,26.52,18.12,26.25,18.12,25.97L18.12,25.97z"/>
	<path class="st0" d="M31.75,23.4l-1.17,2.83l-0.53,1.37l-0.04,0.07c-0.13-0.39-0.32-0.88-0.48-1.35l-1.08-2.93h-1.01l2.1,5.24
		l-1.03,2.43h0.94l3.28-7.67L31.75,23.4z"/>
	<path class="st0" d="M26.76,24.08c-0.27-0.46-0.98-0.78-1.8-0.78c-0.58-0.02-1.15,0.13-1.64,0.44v0.82
		c0.44-0.29,0.94-0.46,1.47-0.5c0.64,0,1.13,0.37,1.27,0.71c0.07,0.22,0.1,0.46,0.09,0.69c-0.24-0.01-0.5-0.02-0.75-0.02
		c-0.52,0-1.24,0.02-1.76,0.28c-0.58,0.22-0.96,0.78-0.95,1.4c-0.01,0.46,0.18,0.91,0.53,1.22c0.31,0.24,0.7,0.37,1.09,0.37
		c0.48,0.02,0.96-0.1,1.37-0.35c0.2-0.16,0.39-0.35,0.55-0.56v0.83h0.8v-3.38C27.03,24.85,26.94,24.44,26.76,24.08z M26.16,26.28
		c0.01,0.24-0.02,0.48-0.08,0.71c-0.05,0.16-0.13,0.31-0.23,0.45c-0.29,0.36-0.73,0.56-1.19,0.55c-0.43,0-1-0.22-1-0.84
		c0-0.61,0.71-0.93,1.11-1c0.23-0.03,0.46-0.05,0.69-0.04c0.23,0,0.47,0.01,0.7,0.03L26.16,26.28z"/>
</g>
</svg>
