<?xml version="1.0" encoding="UTF-8"?>
<svg width="2000px" height="1000px" viewBox="0 0 2000 1000" version="1.1" xmlns="http://www.w3.org/2000/svg" xmlns:xlink="http://www.w3.org/1999/xlink">
    <title>icon_ticket_tickets</title>
    <g id="icon_ticket_tickets" stroke="none" stroke-width="1" fill="none" fill-rule="evenodd">
        <rect id="Rectangle" x="0" y="0" width="2000" height="1000"></rect>
        <g id="Ticket/Tickets" transform="translate(600.000000, 100.000000)">
            <g id="🎨-Icon-Style" transform="translate(112.500000, 99.999750)">
                <path d="M319.497875,50 C349.275053,50 373.575311,73.4494815 374.939589,102.889385 L375,105.502125 L375,569.497875 C375,599.275053 351.550519,623.575311 322.110615,624.939589 L319.497875,625 L55.502125,625 C25.7249471,625 1.42468912,601.550519 0.0604108501,572.110615 L0,569.497875 L0,105.502125 C0,75.7249471 23.4494815,51.4246891 52.8893846,50.0604109 L55.502125,50 L319.497875,50 Z M319.497875,75 L55.502125,75 C39.3301009,75 26.0976047,87.5856152 25.0648802,103.496602 L25,105.502125 L25,569.497875 C25,585.669899 37.5856152,598.902395 53.4966019,599.93512 L55.502125,600 L319.497875,600 C335.669899,600 348.902395,587.414385 349.93512,571.503398 L350,569.497875 L350,105.502125 C350,89.3301009 337.414385,76.0976047 321.503398,75.0648802 L319.497875,75 Z M522.847651,0 C550.95302,0 573.88581,22.1384359 575.249868,49.9469999 L575.314058,52.5701619 L575.314058,484.929838 C575.314058,513.076703 553.232946,536.068074 525.466875,537.435644 L522.847651,537.5 L412.5,537.5 C405.596441,537.5 400,531.903559 400,525 C400,518.589552 404.825502,513.30616 411.042236,512.584097 L412.5,512.5 L522.847651,512.5 C537.350446,512.5 549.238709,501.213067 550.245056,486.899651 L550.314058,484.929838 L550.314058,52.5701619 C550.314058,37.9986776 539.056351,26.0782023 524.808323,25.0691846 L522.847651,25 L287.5,25 C280.596441,25 275,19.4035594 275,12.5 C275,6.08955201 279.825502,0.806160491 286.042236,0.0840966416 L287.5,0 L522.847651,0 Z M247.171124,275.383 C253.580617,275.385306 258.862687,280.209719 259.586554,286.425461 L259.671124,287.883 L259.6625,324.9 L260.279875,324.8725 L297.779875,324.8725 C304.189367,324.874806 309.471437,329.699219 310.195304,335.914961 L310.279875,337.3725 L310.279875,374.8725 C310.277569,381.281992 305.453156,386.564062 299.237413,387.287929 L297.779875,387.3725 L260.279875,387.3725 C256.964384,387.3725 253.784421,386.056766 251.440015,383.71236 C249.486343,381.758689 248.246382,379.224769 247.887868,376.51571 L247.779875,374.8725 L247.775,337.8375 L247.171124,337.883 L209.671124,337.883 C206.355634,337.883929 203.175671,336.567266 200.831265,334.22286 C198.877593,332.269189 197.637632,329.735269 197.279118,327.02621 L197.171124,325.383 L197.171124,287.883 C197.171124,284.567509 198.486859,281.387546 200.831265,279.04314 C202.784936,277.089468 205.318856,275.849507 208.027914,275.490993 L209.671124,275.383 L247.171124,275.383 Z M147.779875,274.616875 C160.957378,274.621748 171.752104,284.817718 172.710656,297.751389 L172.779875,299.616875 L172.779875,362.116875 C172.775068,375.294406 162.579064,386.089169 149.645365,387.047665 L147.779875,387.116875 L85.279875,387.116875 C72.1023443,387.112068 61.3075807,376.916064 60.3490848,363.982365 L60.279875,362.116875 L60.279875,299.616875 C60.284748,286.439372 70.4807176,275.644646 83.4143887,274.686094 L85.279875,274.616875 L147.779875,274.616875 Z M291.529875,343.6225 L266.529875,343.6225 L266.529875,368.6225 L291.529875,368.6225 L291.529875,343.6225 Z M147.779875,293.366875 L85.279875,293.366875 C82.2153749,293.375906 79.6686308,295.583153 79.1333855,298.494875 L79.029875,299.616875 L79.029875,362.116875 C79.0348912,365.183043 81.2437783,367.732059 84.1572317,368.264616 L85.279875,368.366875 L147.779875,368.366875 C150.846043,368.361859 153.395059,366.152972 153.927616,363.239518 L154.029875,362.116875 L154.029875,299.616875 C154.020844,296.552375 151.813597,294.005631 148.901875,293.470386 L147.779875,293.366875 Z M129.718375,312.116875 C133.170155,312.116875 135.968375,314.915095 135.968375,318.366875 L135.968375,343.366875 C135.968375,346.818655 133.170155,349.616875 129.718375,349.616875 L104.718375,349.616875 C101.266595,349.616875 98.468375,346.818655 98.468375,343.366875 L98.468375,318.366875 C98.468375,314.915095 101.266595,312.116875 104.718375,312.116875 L129.718375,312.116875 Z M240.921125,294.133 L215.921125,294.133 L215.921125,319.133 L240.921125,319.133 L240.921125,294.133 Z M148.468375,137.628 C161.645878,137.632873 172.440604,147.828843 173.399156,160.762514 L173.468375,162.628 L173.468375,225.128 C173.463568,238.305531 163.267564,249.100294 150.333865,250.05879 L148.468375,250.128 L85.968375,250.128 C72.7908443,250.123193 61.9960807,239.927189 61.0375848,226.99349 L60.968375,225.128 L60.968375,162.628 C60.973248,149.450497 71.1692176,138.655771 84.1028887,137.697219 L85.968375,137.628 L148.468375,137.628 Z M284.515875,137.628 C297.693378,137.632873 308.488104,147.828843 309.446656,160.762514 L309.515875,162.628 L309.515875,225.128 C309.511068,238.305531 299.315064,249.100294 286.381365,250.05879 L284.515875,250.128 L222.015875,250.128 C208.838344,250.123193 198.043581,239.927189 197.085085,226.99349 L197.015875,225.128 L197.015875,162.628 C197.020748,149.450497 207.216718,138.655771 220.150389,137.697219 L222.015875,137.628 L284.515875,137.628 Z M148.468375,156.378 L85.968375,156.378 C82.9038497,156.38697 80.3570713,158.594242 79.8218666,161.50599 L79.718375,162.628 L79.718375,225.128 C79.7233912,228.194168 81.9322783,230.743184 84.8457317,231.275741 L85.968375,231.378 L148.468375,231.378 C151.534543,231.372984 154.083559,229.164097 154.616116,226.250643 L154.718375,225.128 L154.718375,162.628 C154.709405,159.563475 152.502133,157.016696 149.590385,156.481492 L148.468375,156.378 Z M284.515875,156.378 L222.015875,156.378 C218.949707,156.383016 216.400691,158.591903 215.868134,161.505357 L215.765875,162.628 L215.765875,225.128 C215.766979,228.195791 217.977466,230.747022 220.892606,231.27696 L222.015875,231.378 L284.515875,231.378 C287.582043,231.372984 290.131059,229.164097 290.663616,226.250643 L290.765875,225.128 L290.765875,162.628 C290.756905,159.563475 288.549633,157.016696 285.637885,156.481492 L284.515875,156.378 Z M129.718375,175.128 C133.170155,175.128 135.968375,177.92622 135.968375,181.378 L135.968375,206.378 C135.968375,209.82978 133.170155,212.628 129.718375,212.628 L104.718375,212.628 C101.266595,212.628 98.468375,209.82978 98.468375,206.378 L98.468375,181.378 C98.468375,177.92622 101.266595,175.128 104.718375,175.128 L129.718375,175.128 Z M265.765875,175.128 C269.217655,175.128 272.015875,177.92622 272.015875,181.378 L272.015875,206.378 C272.015875,209.82978 269.217655,212.628 265.765875,212.628 L240.765875,212.628 C237.314095,212.628 234.515875,209.82978 234.515875,206.378 L234.515875,181.378 C234.515875,177.92622 237.314095,175.128 240.765875,175.128 L265.765875,175.128 Z" id="Base" fill="#282D37" fill-rule="nonzero"></path>
                <path d="M125,512.50025 C131.903559,512.50025 137.5,518.096691 137.5,525.00025 C137.5,531.410698 132.674498,536.69409 126.457764,537.416153 L125,537.50025 L87.5,537.50025 C80.5964406,537.50025 75,531.903809 75,525.00025 C75,518.589802 79.8255024,513.30641 86.0422359,512.584347 L87.5,512.50025 L125,512.50025 Z M212.5,512.50025 C219.403559,512.50025 225,518.096691 225,525.00025 C225,531.410698 220.174498,536.69409 213.957764,537.416153 L212.5,537.50025 L175,537.50025 C168.096441,537.50025 162.5,531.903809 162.5,525.00025 C162.5,518.589802 167.325502,513.30641 173.542236,512.584347 L175,512.50025 L212.5,512.50025 Z M298.99725,512.50025 C305.900809,512.50025 311.49725,518.096691 311.49725,525.00025 C311.49725,531.410698 306.671748,536.69409 300.455014,537.416153 L298.99725,537.50025 L262.5,537.50025 C255.596441,537.50025 250,531.903809 250,525.00025 C250,518.589802 254.825502,513.30641 261.042236,512.584347 L262.5,512.50025 L298.99725,512.50025 Z M425,412.5005 C431.903559,412.5005 437.5,418.096941 437.5,425.0005 C437.5,431.410948 432.674498,436.69434 426.457764,437.416403 L425,437.5005 L412.5,437.5005 C405.596441,437.5005 400,431.904059 400,425.0005 C400,418.590052 404.825502,413.30666 411.042236,412.584597 L412.5,412.5005 L425,412.5005 Z M511.49725,412.5005 C518.400809,412.5005 523.99725,418.096941 523.99725,425.0005 C523.99725,431.410948 519.171748,436.69434 512.955014,437.416403 L511.49725,437.5005 L475,437.5005 C468.096441,437.5005 462.5,431.904059 462.5,425.0005 C462.5,418.590052 467.325502,413.30666 473.542236,412.584597 L475,412.5005 L511.49725,412.5005 Z" id="Pulse" fill="#EC0016"></path>
            </g>
        </g>
    </g>
</svg>