<?xml version="1.0" encoding="utf-8"?>
<!-- Generator: Adobe Illustrator 28.1.0, SVG Export Plug-In . SVG Version: 6.00 Build 0)  -->
<svg version="1.1" id="Ebene_1" xmlns="http://www.w3.org/2000/svg" xmlns:xlink="http://www.w3.org/1999/xlink" x="0px" y="0px"
	 width="33px" height="33px" viewBox="0 0 33 33" style="enable-background:new 0 0 33 33;" xml:space="preserve">
<style type="text/css">
	.st0{fill:#282D37;}
	.st1{fill-rule:evenodd;clip-rule:evenodd;fill:#EC0016;}
</style>
<g id="Action_x2F_Credit-Card" transform="translate(600, 100)">
	<g id="_xD83C__xDFA8_-Icon-Style" transform="translate(112.4963, 88.8644)">
		<path id="Base" class="st0" d="M-686.6-174.8c0.6,1.3,0.1,2.9-1.3,3.5l-6.6,3.2c-0.2,0.1-0.4,0.2-0.6,0.2l0,4.5
			c0,0.7-0.2,1.3-0.6,1.8c-0.2,0.2-0.4,0.2-0.6,0.1c-0.2-0.2-0.2-0.4-0.1-0.6c0.2-0.3,0.4-0.7,0.4-1.2l0-4.4
			c-0.5-0.1-1.1-0.3-1.5-0.6l-0.8,0.8v2.1c0,1.2-0.6,2.1-1.2,2.6c-0.7,0.5-1.1,0.6-1.4,0.6c-0.2,0-0.5-0.1-0.5-0.4
			c0-0.2,0.1-0.5,0.4-0.5c0.4-0.1,0.8-0.3,1-0.4c0.6-0.4,0.9-1,0.9-1.9v-2.3c0-0.1,0-0.2,0.1-0.3l2.7-2.7c0.5-0.5,0.5-1.2,0-1.6
			c-0.5-0.5-1.2-0.5-1.6,0l-3.7,3.7c-0.2,0.2-0.5,0.2-0.6,0c-0.2-0.2-0.2-0.5,0-0.6l2.8-2.8l-0.3-0.5c-0.6-1.3-0.1-2.9,1.3-3.5
			l0.3-0.1c-0.5-0.2-1.3,0.1-2.3,0.9l-3.9,3.4c-0.5,0.5-0.8,1.2-0.8,2v8.2c0,0.3-0.2,0.5-0.5,0.5c-0.3,0-0.5-0.2-0.5-0.5v-8.2
			c0-1,0.4-1.9,1.1-2.6l3.9-3.4c1.5-1.2,2.7-1.6,3.6-0.9c0.1,0,0.1,0.1,0.1,0.2l5.4-2.6c1.3-0.6,2.9-0.1,3.5,1.2L-686.6-174.8z
			 M-688.7-177.1l-7.3,3.6c0.1,0.1,0.3,0.2,0.4,0.3c0.8,0.8,0.8,2.1,0,2.9l-1.1,1.1c0.5,0.4,1.3,0.5,1.9,0.2l6.6-3.2
			c0.9-0.4,1.2-1.5,0.8-2.3L-688.7-177.1z M-688.4-173.2c-2.1,1-3.2,1.6-3.3,1.6c-0.2,0.1-0.5,0-0.6-0.2c-0.1-0.2,0-0.5,0.2-0.6
			c0.1,0,1.2-0.6,3.3-1.6c0.2-0.1,0.5,0,0.6,0.2C-688.1-173.6-688.2-173.3-688.4-173.2z M-698.1-175.5c-0.9,0.4-1.2,1.5-0.9,2.3
			l0.2,0.3l0.2-0.2c0.3-0.3,0.7-0.5,1-0.6c5.6-2.7,8.4-4.1,8.4-4.1l0-0.1c-0.4-0.8-1.4-1.2-2.3-0.8L-698.1-175.5z"/>
		<path id="Pulse" class="st1" d="M-692.5-182.8c-0.1,0.2,0,0.5,0.3,0.6c0.1,0,0.3,0,0.4-0.1c0.8-0.6,1.9-0.8,2.9-0.5
			c1,0.3,1.7,1.1,2,2.1c0,0.1,0.2,0.3,0.3,0.3c0.2,0.1,0.5,0,0.6-0.3c0-0.1,0-0.2,0-0.3c-0.4-1.3-1.4-2.3-2.6-2.7
			c-1.2-0.4-2.6-0.2-3.7,0.6C-692.4-183-692.5-182.9-692.5-182.8z M-691.7-181.3c-0.1,0.2,0,0.5,0.3,0.6c0.2,0,0.3,0,0.4-0.1
			c0.4-0.4,1-0.5,1.5-0.3c0.5,0.2,0.9,0.6,1.1,1.1c0,0.1,0.2,0.3,0.3,0.3c0.3,0.1,0.5-0.1,0.6-0.3c0-0.1,0-0.2,0-0.3
			c-0.2-0.8-0.9-1.5-1.7-1.8c-0.8-0.3-1.7-0.1-2.4,0.4C-691.6-181.5-691.7-181.4-691.7-181.3z"/>
	</g>
</g>
</svg>
