<?xml version="1.0" encoding="utf-8"?>
<!-- Generator: Adobe Illustrator 28.2.0, SVG Export Plug-In . SVG Version: 6.00 Build 0)  -->
<svg version="1.1" id="Ebene_1" xmlns="http://www.w3.org/2000/svg" xmlns:xlink="http://www.w3.org/1999/xlink" x="0px" y="0px"
	 width="33px" height="33px" viewBox="0 0 33 33" style="enable-background:new 0 0 33 33;" xml:space="preserve">
<style type="text/css">
	.st0{fill:#FFFFFF;}
</style>
<path id="XMLID_4_" d="M30.1,6H3C2.9,6,2.8,6,2.7,6C2.6,6,2.5,6,2.4,6C2.2,6,2,6,1.8,6c-0.2,0-0.4,0.1-0.6,0.2
	C1,6.3,0.9,6.4,0.7,6.6C0.6,6.7,0.4,6.9,0.3,7.1C0.2,7.3,0.2,7.5,0.1,7.7c0,0.2,0,0.4-0.1,0.6c0,0.1,0,0.2,0,0.3c0,0.1,0,0.2,0,0.3
	v15.2c0,0.1,0,0.2,0,0.3c0,0.1,0,0.2,0,0.3c0,0.2,0,0.4,0.1,0.6c0,0.2,0.1,0.4,0.2,0.6c0.1,0.2,0.2,0.4,0.4,0.5
	c0.1,0.1,0.3,0.3,0.5,0.4c0.2,0.1,0.4,0.2,0.6,0.2C2,27,2.2,27,2.4,27c0.1,0,0.2,0,0.3,0c0.1,0,0.2,0,0.3,0h27c0.1,0,0.2,0,0.3,0
	c0.1,0,0.2,0,0.3,0c0.2,0,0.4,0,0.6-0.1c0.2,0,0.4-0.1,0.6-0.2c0.2-0.1,0.4-0.2,0.5-0.4c0.1-0.1,0.3-0.3,0.4-0.5
	c0.1-0.2,0.2-0.4,0.2-0.6c0-0.2,0-0.4,0.1-0.6c0-0.1,0-0.2,0-0.3c0-0.1,0-0.2,0-0.3V8.9c0-0.1,0-0.2,0-0.3c0-0.1,0-0.2,0-0.3
	c0-0.2,0-0.4-0.1-0.6c0-0.2-0.1-0.4-0.2-0.6c-0.1-0.2-0.2-0.4-0.4-0.5c-0.1-0.1-0.3-0.3-0.5-0.4c-0.2-0.1-0.4-0.2-0.6-0.2
	c-0.2,0-0.4,0-0.6-0.1c-0.1,0-0.2,0-0.3,0C30.3,6,30.2,6,30.1,6L30.1,6z"/>
<path id="XMLID_3_" class="st0" d="M30.1,6.7l0.3,0c0.1,0,0.2,0,0.3,0c0.2,0,0.3,0,0.5,0c0.1,0,0.3,0.1,0.4,0.1
	c0.1,0.1,0.2,0.1,0.3,0.2c0.1,0.1,0.2,0.2,0.2,0.3c0.1,0.1,0.1,0.2,0.1,0.4c0,0.2,0,0.4,0,0.5c0,0.1,0,0.2,0,0.3c0,0.1,0,0.2,0,0.3
	v15.2c0,0.1,0,0.2,0,0.3c0,0.1,0,0.2,0,0.3c0,0.2,0,0.3,0,0.5c0,0.1-0.1,0.3-0.1,0.4c-0.1,0.1-0.1,0.2-0.2,0.3
	c-0.1,0.1-0.2,0.2-0.3,0.2c-0.1,0.1-0.2,0.1-0.4,0.1c-0.2,0-0.4,0-0.5,0c-0.1,0-0.2,0-0.3,0c-0.1,0-0.2,0-0.3,0H3c0,0,0,0,0,0
	c-0.1,0-0.2,0-0.3,0c-0.1,0-0.2,0-0.3,0c-0.1,0-0.3,0-0.5,0c-0.1,0-0.3-0.1-0.4-0.1c-0.1-0.1-0.2-0.1-0.3-0.2
	C1.1,25.8,1,25.7,1,25.6c-0.1-0.1-0.1-0.2-0.1-0.4c0-0.2,0-0.4,0-0.5c0-0.1,0-0.2,0-0.3l0-0.3l0-0.1V8.9l0-0.1l0-0.3
	c0-0.1,0-0.2,0-0.3c0-0.2,0-0.3,0-0.5c0-0.1,0.1-0.3,0.1-0.4C1,7.3,1.1,7.2,1.2,7.1C1.3,7,1.4,6.9,1.5,6.8c0.1-0.1,0.2-0.1,0.4-0.1
	c0.2,0,0.4,0,0.5,0c0.1,0,0.2,0,0.3,0l0.3,0H30.1"/>
<g>
	<path d="M9.1,13.1c0.3-0.4,0.5-0.8,0.4-1.3c-0.4,0-0.9,0.3-1.2,0.6c-0.3,0.3-0.5,0.8-0.4,1.3C8.3,13.7,8.8,13.4,9.1,13.1"/>
	<path d="M9.5,13.7c-0.7,0-1.2,0.4-1.6,0.4c-0.3,0-0.8-0.4-1.3-0.4c-0.7,0-1.3,0.4-1.7,1c-0.7,1.2-0.2,3.1,0.5,4.1
		c0.3,0.5,0.8,1.1,1.3,1c0.5,0,0.7-0.3,1.3-0.3c0.6,0,0.8,0.3,1.3,0.3c0.6,0,0.9-0.5,1.3-1c0.4-0.6,0.6-1.1,0.6-1.2
		c0,0-1.1-0.4-1.1-1.7c0-1,0.8-1.5,0.9-1.6C10.5,13.8,9.8,13.7,9.5,13.7"/>
</g>
<path d="M15.3,12.3c1.5,0,2.5,1,2.5,2.5c0,1.5-1,2.5-2.5,2.5h-1.6v2.6h-1.2v-7.5L15.3,12.3L15.3,12.3z M13.7,16.3H15
	c1,0,1.6-0.5,1.6-1.5c0-1-0.6-1.5-1.6-1.5h-1.3V16.3z"/>
<path d="M18.1,18.3c0-1,0.7-1.6,2-1.6l1.5-0.1v-0.4c0-0.6-0.4-1-1.1-1c-0.7,0-1.1,0.3-1.2,0.8h-1.1c0.1-1,0.9-1.7,2.3-1.7
	c1.3,0,2.2,0.7,2.2,1.8v3.8h-1.1v-0.9h0c-0.3,0.6-1,1-1.7,1C18.9,19.9,18.1,19.3,18.1,18.3z M21.7,17.8v-0.4l-1.4,0.1
	c-0.7,0-1.1,0.3-1.1,0.8c0,0.5,0.4,0.8,1,0.8C21.1,19.1,21.7,18.5,21.7,17.8z"/>
<path d="M23.8,21.9V21c0.1,0,0.3,0,0.4,0c0.5,0,0.8-0.2,1-0.8c0,0,0.1-0.3,0.1-0.3l-2-5.5h1.2l1.4,4.5h0l1.4-4.5h1.2l-2.1,5.8
	c-0.5,1.3-1,1.8-2.2,1.8C24.2,21.9,23.9,21.9,23.8,21.9z"/>
</svg>
