<?xml version="1.0" encoding="utf-8"?>
<!-- Generator: Adobe Illustrator 28.1.0, SVG Export Plug-In . SVG Version: 6.00 Build 0)  -->
<svg version="1.1" id="Ebene_1" xmlns="http://www.w3.org/2000/svg" xmlns:xlink="http://www.w3.org/1999/xlink" x="0px" y="0px"
	 width="33px" height="33px" viewBox="0 0 33 33" style="enable-background:new 0 0 33 33;" xml:space="preserve">
<style type="text/css">
	.st0{fill:#282D37;}
	.st1{fill-rule:evenodd;clip-rule:evenodd;fill:#EC0016;}
</style>
<g id="Action_x2F_SEPA" transform="translate(600, 100)">
	<g id="_xD83C__xDFA8_-Icon-Style_00000057837753611602455480000002914130698549043338_" transform="translate(125, 125)">
		<path id="Base_00000051365264256868016220000008523101154177835421_" class="st0" d="M-700.2-219.9c1,0,1.8,0.8,1.8,1.8v7.5
			c0,0.3-0.2,0.5-0.5,0.5c-0.3,0-0.5-0.2-0.5-0.5v-7.5c0-0.4-0.3-0.8-0.8-0.8h-17.2c-0.2,0-0.4,0.1-0.6,0.2
			c-0.1,0.1-0.2,0.3-0.2,0.6l0,18.5c0,1.1,0.4,1.5,1.5,1.5h16.4c0.4,0,0.8-0.3,0.8-0.8v-2.2c0-0.3,0.2-0.5,0.5-0.5
			c0.3,0,0.5,0.2,0.5,0.5v2.2c0,1-0.8,1.8-1.8,1.8h-16.4c-1.6,0-2.5-0.9-2.5-2.5l0-18.5c0-0.5,0.2-0.9,0.5-1.3
			c0.3-0.3,0.8-0.5,1.3-0.5H-700.2L-700.2-219.9z M-711.3-202.6l1.2,1.2l0.7-0.7c0.2-0.2,0.4-0.2,0.6-0.1l0.8,0.6l0.8-0.4
			c0.1-0.1,0.2-0.1,0.3,0l0.8,0.3c0.3,0.1,0.4,0.4,0.3,0.7s-0.4,0.4-0.7,0.3l-0.6-0.2l-0.8,0.4c-0.2,0.1-0.3,0.1-0.5,0l-0.7-0.5
			l-0.7,0.7c-0.2,0.2-0.5,0.2-0.7,0l-1.2-1.2l-0.4,0.6c-0.2,0.2-0.5,0.3-0.7,0.1c-0.2-0.2-0.3-0.5-0.1-0.7l0.8-1
			C-711.9-202.8-711.5-202.9-711.3-202.6z M-696.6-210.6c0.3,0,0.6,0.1,0.8,0.3l1.2,1.2c0.2,0.2,0.4,0.5,0.4,0.9
			c0,0.3-0.1,0.6-0.4,0.9l-6.1,6.1c-0.1,0.1-0.3,0.3-0.5,0.3c-0.2,0-0.7,0.2-1.2,0.3l0,0l0,0c0,0,0,0-0.1,0l-0.1,0l0,0l0,0
			c0,0,0,0-0.1,0l0,0c-0.6,0.2-1.2,0.3-1.3,0.3c-0.1,0-0.3-0.1-0.4-0.2c-0.1-0.1-0.2-0.3-0.2-0.4l0.7-2.7c0-0.2,0.1-0.4,0.3-0.5
			l6.2-6.2C-697.3-210.4-697-210.6-696.6-210.6z M-702.9-203.4L-702.9-203.4c0,0-0.2,0.7-0.5,2c1.3-0.3,1.9-0.5,1.9-0.5l0,0
			L-702.9-203.4z M-698.2-208l-3.9,3.9l1.4,1.4l3.9-3.9L-698.2-208z M-706.2-205.9c0.3,0,0.5,0.2,0.5,0.5s-0.2,0.5-0.5,0.5h-9.4
			c-0.3,0-0.5-0.2-0.5-0.5s0.2-0.5,0.5-0.5H-706.2z M-706.2-208c0.3,0,0.5,0.2,0.5,0.5s-0.2,0.5-0.5,0.5h-9.4
			c-0.3,0-0.5-0.2-0.5-0.5s0.2-0.5,0.5-0.5C-715.6-208-706.2-208-706.2-208z M-696.8-209.5l-0.7,0.7l1.4,1.4l0.7-0.7
			c0,0,0.1-0.2,0-0.3l-1.1-1.1C-696.6-209.5-696.7-209.6-696.8-209.5z"/>
		<path id="Pulse_00000052825715797153039370000003259865170014003088_" class="st1" d="M-711.4-211.8v-1h1.1c0.3,0,0.4-0.2,0.4-0.4
			c0-0.1,0-0.4-0.4-0.4h-1.1v-0.9h1.5c0.3,0,0.4-0.3,0.4-0.4s0-0.4-0.4-0.4h-2c-0.2,0-0.3,0-0.4,0.1c-0.1,0.1-0.1,0.2-0.1,0.4v3.2
			c0,0.2,0,0.3,0.1,0.4c0.1,0.1,0.2,0.1,0.4,0.1h2.1c0.3,0,0.4-0.3,0.4-0.4c0-0.1,0-0.4-0.4-0.4
			C-709.7-211.8-711.4-211.8-711.4-211.8z M-714-213.6c-0.3-0.1-0.7-0.3-0.8-0.4c-0.1-0.2-0.1-0.4,0.1-0.5c0.4-0.3,1.1,0,1.2,0
			c0.4,0.1,0.5-0.2,0.5-0.3c0-0.1,0-0.3-0.3-0.4c-0.1-0.1-0.5-0.2-0.9-0.2c-0.5,0-0.8,0.1-1.1,0.3c-0.3,0.2-0.4,0.5-0.4,0.9
			c0,0.2,0,0.4,0.1,0.5c0.1,0.1,0.1,0.2,0.3,0.4c0.2,0.1,1,0.5,1.1,0.6c0.1,0,0.3,0.2,0.3,0.4c0,0.4-0.5,0.5-0.7,0.5
			c-0.3,0-0.5-0.1-0.8-0.2c-0.1,0-0.3-0.1-0.4,0.1c0,0.1-0.1,0.1-0.1,0.2c0,0.2,0.2,0.3,0.3,0.4c0.1,0.1,0.3,0.1,0.5,0.1
			c0.9,0.1,1.5-0.1,1.7-0.3c0.3-0.2,0.6-0.8,0.3-1.5c-0.1-0.2-0.2-0.3-0.3-0.4C-713.5-213.3-713.7-213.4-714-213.6z M-707.3-213.3
			c-0.2,0-0.3,0-0.5-0.1v-1.2h0.6c0.2,0,0.6,0,0.6,0.6c0,0.2,0,0.3-0.1,0.4C-706.8-213.3-707.1-213.3-707.3-213.3z M-708.3-215.3
			c-0.2,0-0.3,0-0.4,0.1c-0.1,0.1-0.1,0.2-0.1,0.4v3.3c0,0.4,0.3,0.5,0.5,0.5c0.2,0,0.5,0,0.5-0.5v-1.2c0.2,0,0.5,0,0.6,0
			c0.5,0,0.9-0.1,1.1-0.3c0.3-0.2,0.4-0.5,0.4-1c0-0.4-0.1-0.7-0.4-1c-0.3-0.2-0.6-0.3-1.1-0.3L-708.3-215.3L-708.3-215.3z
			 M-703.7-214l0.5,1.4h-1L-703.7-214z M-703-214.9c-0.1-0.1-0.1-0.2-0.2-0.3c-0.1-0.1-0.2-0.1-0.3-0.1c-0.1,0-0.2,0-0.2,0.1
			c-0.1,0-0.1,0.1-0.2,0.1c0,0.1-0.1,0.1-0.1,0.2l-1.3,3.3c0,0.1-0.1,0.3,0.1,0.5c0.2,0.1,0.4,0,0.5,0c0.1-0.1,0.1-0.2,0.2-0.3
			l0.2-0.5h1.5l0.2,0.5c0.1,0.2,0.1,0.3,0.2,0.3c0.1,0.1,0.4,0.2,0.6,0c0.2-0.2,0.2-0.4,0.1-0.5L-703-214.9z"/>
	</g>
</g>
</svg>
