<?xml version="1.0" encoding="UTF-8"?>
<svg width="2000px" height="1000px" viewBox="0 0 2000 1000" version="1.1" xmlns="http://www.w3.org/2000/svg" xmlns:xlink="http://www.w3.org/1999/xlink">
    <title>icon_station_db-train-station-with-train</title>
    <g id="icon_station_db-train-station-with-train" stroke="none" stroke-width="1" fill="none" fill-rule="evenodd">
        <rect id="Rectangle" x="0" y="0" width="2000" height="1000"></rect>
        <g id="Station/DB-Train-Station-with-Train" transform="translate(600.000000, 100.000000)">
            <g id="🎨-Icon-Style" transform="translate(50.000000, 150.000000)">
                <path d="M12.5,500 C6.08955201,500 0.806160491,495.174498 0.0840966416,488.957764 L0,487.5 L0,312.5 C0,278.890566 26.5288339,251.477274 59.7888797,250.057744 L62.5,250 L200,250 L200,62.5 C200,28.8905662 226.528834,1.47727357 259.78888,0.0577439231 L262.5,0 L437.5,0 C471.109434,0 498.522726,26.5288339 499.942256,59.7888797 L500,62.5 L500,125 C500,131.903559 494.403559,137.5 487.5,137.5 C481.089552,137.5 475.80616,132.674498 475.084097,126.457764 L475,125 L475,62.5 C475,42.528989 459.3885,26.204239 439.70341,25.0636587 L437.5,25 L262.5,25 C242.528989,25 226.204239,40.6114996 225.063659,60.2965901 L225,62.5 L225,475 L275,475 L275,337.498875 C275,317.527864 290.6115,301.203114 310.29659,300.062534 L312.5,299.998875 L387.5,299.998875 C394.403559,299.998875 400,305.595316 400,312.498875 C400,318.909323 395.174498,324.192715 388.957764,324.914778 L387.5,324.998875 L312.5,324.998875 C306.089552,324.998875 300.80616,329.824377 300.084097,336.041111 L300,337.498875 L300,487.5 C300,493.910448 295.174498,499.19384 288.957764,499.915903 L287.5,500 L12.5,500 Z M612.53597,166.650939 C649.973031,188.282779 673.481317,227.659552 674.926369,270.668932 L675.001,274.999667 L675.001,312.638984 C675.01814,338.961711 672.032782,365.200417 666.097918,390.860127 C664.742652,396.688401 663.369479,402.221599 661.966673,407.473358 L659.838774,415.141623 C641.896648,477.313248 618.408417,496.575515 566.474083,499.56393 L560.103956,499.84613 C557.93409,499.915295 555.717244,499.960127 553.451953,499.98233 L550.0175,499.998842 C546.545956,499.998842 543.185012,499.949803 539.92973,499.845909 L533.558589,499.563325 L530.475937,499.364017 L530.475937,499.364017 L524.510987,498.842986 C485.620477,494.808331 464.051399,479.324369 448.099339,438.764376 L445.747195,432.490603 C444.205233,428.180437 442.713589,423.612697 441.260559,418.773756 L439.10851,411.310242 L436.486527,401.393217 L436.486527,401.393217 L433.874018,390.588551 C428.61593,367.823187 425.679184,344.591028 425.103576,321.248266 L424.9875,312.475 L425,274.975 L425.062088,270.959264 C426.410854,227.836815 449.940621,188.331444 487.461905,166.650939 C526.155747,144.292908 573.842128,144.292908 612.53597,166.650939 Z M199.9875,275 L62.5,275 C42.528989,275 26.204239,290.6115 25.0636587,310.29659 L25,312.5 L24.9875,475 L62.5,475 L62.5,337.85 C62.5,317.878989 78.1114996,301.554239 97.7965901,300.413659 L100,300.35 L125,300.35 C144.971011,300.35 161.295761,315.9615 162.436341,335.64659 L162.5,337.85 L162.5,475 L199.9875,475 L199.9875,275 Z M125,325.35 L100,325.35 C93.589552,325.35 88.3061605,330.175502 87.5840966,336.392236 L87.5,337.85 L87.5,475 L137.5,475 L137.5,337.85 C137.5,331.932663 133.388329,326.975659 127.866135,325.680134 L126.457764,325.434097 L125,325.35 Z M473.951812,436.691941 L475.241868,439.475921 C485.244875,460.305568 497.916517,469.39863 518.734129,472.966664 L523.270476,473.642384 L528.062389,474.165771 L534.429326,474.625812 L534.429326,474.625812 L541.236331,474.894042 L547.013996,474.987798 L553.020744,474.987798 L558.797777,474.894255 L564.278544,474.694567 C566.946795,474.565996 569.508299,474.39269 571.969584,474.167253 L576.760464,473.644681 C599.631046,470.718034 613.269576,462.296284 623.84603,441.389893 L625.900528,437.088365 C582.405306,456.297947 523.984957,456.699215 479.009471,438.805103 L473.951812,436.691941 Z M549.998938,174.882416 L546.297598,174.950858 C530.264142,175.544028 514.341453,179.992802 499.969512,188.297181 C470.046403,205.587317 451.246612,237.048314 450.060481,271.420208 L449.99934,274.999667 L449.99934,312.507508 L449.99934,312.507508 C449.984445,334.184027 452.165304,355.799232 456.502143,377.01269 L458.276297,385.150032 L460.133585,392.957153 L462.28202,401.427706 L463.061246,401.874028 L463.061246,401.874028 L463.817298,402.382372 C508.480293,434.795568 592.664715,435.221424 635.992606,402.521585 C636.555203,402.096989 637.142068,401.727165 637.746805,401.41122 L638.037734,400.364629 L640.812656,389.171615 L641.744253,385.212226 L641.744253,385.212226 C646.635727,364.063638 649.367575,342.480087 649.902064,320.793442 L649.999,312.498333 L649.996945,274.985843 L649.996945,274.985843 C650.034574,239.234888 630.983304,206.183529 600.028363,188.297181 C585.656422,179.992802 569.733733,175.544028 553.700277,174.950858 L549.998938,174.882416 Z M490.714918,350.002002 L492.121696,350.037715 C496.769387,350.420349 500.937578,353.402026 502.71179,357.877423 L503.170319,359.263749 L509.954319,384.581874 C511.741099,391.250198 507.783825,398.104415 501.115501,399.891194 L499.685643,400.187262 L498.261582,400.314123 C493.064691,400.477174 488.216343,397.361639 486.26471,392.438702 L485.806181,391.052376 L479.022181,365.734251 C477.235401,359.065927 481.192675,352.21171 487.860999,350.424931 C488.813617,350.169676 489.770028,350.031648 490.714918,350.002002 Z M609.282957,350.002002 L610.707018,350.128863 C611.18331,350.198983 611.660567,350.297303 612.136876,350.424931 C618.328891,352.084083 622.183317,358.112607 621.271762,364.304393 L620.975694,365.734251 L614.191694,391.052376 C612.787796,396.291774 608.255531,399.857513 603.143071,400.27841 L601.736293,400.314123 C600.791403,400.284477 599.834992,400.146449 598.882374,399.891194 C592.690359,398.232042 588.835933,392.203518 589.747488,386.011732 L590.043556,384.581874 L596.827556,359.263749 C598.231454,354.024351 602.763719,350.458612 607.876179,350.037715 L609.282957,350.002002 Z M549.138635,212.495163 L552.363907,212.534117 C590.881792,213.444101 622.51877,230.253473 624.868041,259.506685 L624.995538,261.973184 L624.998982,274.556957 C624.957716,298.880178 613.157648,321.682209 593.324696,335.763218 C581.605225,344.083814 567.935726,348.752337 553.980374,349.535671 L550.755592,349.647366 C542.146679,349.760741 533.477993,348.396009 525.13736,345.498846 C495.816134,335.424826 475.942941,308.255987 475.027046,277.6113 L474.999,274.53575 L475.012873,260.118294 C475.967356,230.425854 507.19596,213.406155 545.89676,212.530674 L549.138635,212.495163 Z M549.123209,237.495163 L546.146409,237.53201 C519.644057,238.208994 501.059506,248.130998 500.039555,260.843696 L499.999,262.267375 L499.998161,274.680614 C499.751844,295.933332 513.159794,314.94927 533.300514,321.869179 C539.053078,323.867344 545.034823,324.776154 550.963182,324.635874 L553.921604,324.478496 C562.775676,323.745208 571.403667,320.666564 578.851913,315.378455 C591.314337,306.530377 599.026059,292.524629 599.913152,277.386447 L599.999,274.53575 L599.9875,262.3875 L599.894334,261.135157 C598.317835,248.863125 580.237714,239.013587 555.056126,237.655173 L552.119578,237.536461 L549.123209,237.495163 Z M350,75 C384.517797,75 412.5,102.982203 412.5,137.5 C412.5,172.017797 384.517797,200 350,200 C315.482203,200 287.5,172.017797 287.5,137.5 C287.5,102.982203 315.482203,75 350,75 Z M350,100 C329.289322,100 312.5,116.789322 312.5,137.5 C312.5,158.210678 329.289322,175 350,175 C370.710678,175 387.5,158.210678 387.5,137.5 C387.5,116.789322 370.710678,100 350,100 Z" id="Base" fill="#282D37" fill-rule="nonzero"></path>
                <path d="M687.5,525 C694.403559,525 700,530.596441 700,537.5 C700,543.910448 695.174498,549.19384 688.957764,549.915903 L687.5,550 L412.5,550 C405.596441,550 400,544.403559 400,537.5 C400,531.089552 404.825502,525.80616 411.042236,525.084097 L412.5,525 L687.5,525 Z M375,237.5 C381.903559,237.5 387.5,243.096441 387.5,250 C387.5,256.410448 382.674498,261.69384 376.457764,262.415903 L375,262.5 L325,262.5 C318.096441,262.5 312.5,256.903559 312.5,250 C312.5,243.589552 317.325502,238.30616 323.542236,237.584097 L325,237.5 L375,237.5 Z" id="Pulse" fill="#EC0016"></path>
            </g>
        </g>
    </g>
</svg>