<?xml version="1.0" encoding="UTF-8"?>
<svg width="57px" height="33px" viewBox="0 0 57 33" version="1.1" xmlns="http://www.w3.org/2000/svg" xmlns:xlink="http://www.w3.org/1999/xlink">
    <title>17. Basic Elements/H. Payment/32dp/paypal Copy</title>
    <g id="Page-1" stroke="none" stroke-width="1" fill="none" fill-rule="evenodd">
        <g id="Artboard" transform="translate(-808.000000, -80.000000)" fill-rule="nonzero">
            <g id="Payment" transform="translate(553.000000, 36.000000)">
                <g id="Logos" transform="translate(132.000000, 40.000000)">
                    <g id="17.-Basic-Elements/H.-Payment/32dp/paypal-Copy" transform="translate(123.453877, 4.000000)">
                        <g id="PayPal" transform="translate(0.000038, 9.258824)">
                            <path d="M20.7496962,2.91730959 L17.6788379,2.91730959 C17.4688037,2.91718215 17.2899278,3.06425634 17.2572067,3.26398065 L16.0152131,10.8444903 C16.0036578,10.9156789 16.0250513,10.9881696 16.0737609,11.0428759 C16.1224705,11.0975822 16.1936146,11.1290216 16.2684613,11.1289164 L17.7345166,11.1289164 C17.9446963,11.1290103 18.1236253,10.981709 18.1561478,10.7818129 L18.4911179,8.73723226 C18.5236141,8.53749794 18.7022905,8.39024777 18.9123001,8.39012903 L19.8844317,8.39012903 C21.9072737,8.39012903 23.0747297,7.44780645 23.3796153,5.58045161 C23.5170159,4.76348387 23.3854526,4.12158065 22.9880686,3.67203226 C22.5516196,3.17839355 21.7775065,2.91730959 20.7496962,2.91730959 L20.7496962,2.91730959 Z M21.1039742,5.68592258 C20.9360402,6.74668387 20.0941248,6.74668387 19.2800487,6.74668387 L18.8166585,6.74668387 L19.1417501,4.76564516 C19.1614118,4.64590964 19.2686257,4.55772903 19.3945492,4.55772903 L19.6069364,4.55772903 C20.161478,4.55772903 20.6845881,4.55772903 20.9548991,4.86203871 C21.1160978,5.0435871 21.1654902,5.31331613 21.1039742,5.68592258 L21.1039742,5.68592258 Z M29.9290435,5.65177419 L28.4584979,5.65177419 C28.3325745,5.65177608 28.2253605,5.7399548 28.2056988,5.85969032 L28.1405907,6.25563871 L28.0377648,6.11212903 C27.7194085,5.66733548 27.0095054,5.51863871 26.3009495,5.51863871 C24.6759405,5.51863871 23.288015,6.70345806 23.017704,8.36549032 C22.8771602,9.19456129 23.0769748,9.98732258 23.5655103,10.5401806 C24.0136338,11.0485161 24.6548365,11.2603226 25.4177241,11.2603226 C26.7270709,11.2603226 27.4531387,10.4498387 27.4531387,10.4498387 L27.3875816,10.8431935 C27.3757594,10.9143676 27.3969047,10.986956 27.4454465,11.0418342 C27.4939884,11.0967124 27.5650583,11.1283764 27.6399317,11.1284839 L28.9645452,11.1284839 C29.1747249,11.128578 29.3536539,10.9812767 29.3861764,10.7813806 L30.1809445,5.9362 C30.1927833,5.86518203 30.1716778,5.79273828 30.1232029,5.73800439 C30.0747279,5.68327051 30.0037595,5.65175196 29.9290435,5.65177419 L29.9290435,5.65177419 Z M27.8792601,8.4069871 C27.7373693,9.21574194 27.0705724,9.75865806 26.2201256,9.75865806 C25.7931061,9.75865806 25.4518497,9.62681935 25.2327272,9.37697419 C25.0154008,9.12885806 24.9327808,8.77570323 25.0019302,8.38234839 C25.1343915,7.58050968 25.812414,7.01987097 26.6498392,7.01987097 C27.0674292,7.01987097 27.4068895,7.15343871 27.6305022,7.40544516 C27.854564,7.66004516 27.9434702,8.01536129 27.8792601,8.4069871 L27.8792601,8.4069871 Z M37.7608771,5.65177332 L36.2831472,5.65177332 C36.1416598,5.6519898 36.0094095,5.71944789 35.9297673,5.83202581 L33.8916585,8.72210323 L33.0277411,5.94484516 C32.9732909,5.77092223 32.8069281,5.65186196 32.6182334,5.65177332 L31.1660978,5.65177332 C31.0833934,5.65156248 31.00568,5.68983584 30.9574657,5.7545242 C30.9092513,5.81921256 30.8964792,5.90234214 30.9231771,5.97769677 L32.5508802,10.5760581 L31.0206148,12.6556516 C30.9651731,12.7308183 30.9579583,12.8294914 31.0019154,12.9113934 C31.0458725,12.9932954 31.1336469,13.0446843 31.2294098,13.0446843 L32.7053436,13.0446843 C32.8452224,13.0448693 32.9762883,12.9789558 33.0560294,12.8683226 L37.9710192,6.03864516 C38.0253163,5.96333325 38.0316896,5.86522842 37.9875627,5.78399092 C37.9434358,5.70275343 37.8561058,5.65177332 37.7608771,5.65177332 L37.7608771,5.65177332 Z" id="Shape" fill="#253B80"></path>
                            <path d="M42.6534157,2.91730968 L39.5821084,2.91730968 C39.3722442,2.91739491 39.1936208,3.06441808 39.1609262,3.26398065 L37.9189327,10.8444903 C37.9072419,10.9155564 37.9284629,10.9879868 37.9770047,11.0426986 C38.0255465,11.0974105 38.0965407,11.1289161 38.1712828,11.1289161 L39.7473483,11.1289161 C39.8942384,11.1287088 40.0191552,11.025687 40.0419065,10.8859871 L40.3943884,8.73723226 C40.4268846,8.53749794 40.605561,8.39024777 40.8155706,8.39012903 L41.7872532,8.39012903 C43.8105442,8.39012903 44.9775512,7.44780645 45.2828858,5.58045161 C45.4207354,4.76348387 45.2882741,4.12158065 44.89089,3.67203226 C44.4548901,3.17839355 43.681226,2.91730968 42.6534157,2.91730968 L42.6534157,2.91730968 Z M43.0076937,5.68592258 C42.8402087,6.74668387 41.9982933,6.74668387 41.1837682,6.74668387 L40.720827,6.74668387 L41.0463676,4.76564516 C41.0656505,4.64588193 41.1728245,4.55757918 41.2987177,4.55772884 L41.5111049,4.55772884 C42.0651975,4.55772884 42.5887566,4.55772884 42.8590676,4.86203871 C43.0202663,5.0435871 43.0692097,5.31331613 43.0076937,5.68592258 L43.0076937,5.68592258 Z M51.8323139,5.65177419 L50.3626665,5.65177419 C50.2367029,5.65144064 50.1294215,5.73983187 50.1103164,5.85969032 L50.0452082,6.25563871 L49.9419333,6.11212903 C49.623577,5.66733548 48.914123,5.51863871 48.205567,5.51863871 C46.5805581,5.51863871 45.1930815,6.70345806 44.9227706,8.36549032 C44.7826758,9.19456129 44.9815924,9.98732258 45.4701278,10.5401806 C45.9191493,11.0485161 46.5594541,11.2603226 47.3223416,11.2603226 C48.6316884,11.2603226 49.3577563,10.4498387 49.3577563,10.4498387 L49.2921991,10.8431935 C49.2803521,10.9145168 49.3016117,10.9872522 49.3503554,11.0421632 C49.3990991,11.0970742 49.470417,11.1286296 49.5454473,11.1284839 L50.8696118,11.1284839 C51.0796214,11.1283651 51.2582978,10.981115 51.290794,10.7813806 L52.0860111,5.9362 C52.0974192,5.86496364 52.0759106,5.79248603 52.027134,5.73780148 C51.9783574,5.68311693 51.9071871,5.65169002 51.8323139,5.65177419 L51.8323139,5.65177419 Z M49.7825306,8.4069871 C49.6415379,9.21574194 48.9738428,9.75865806 48.1233961,9.75865806 C47.6972746,9.75865806 47.3551202,9.62681935 47.1359977,9.37697419 C46.9186713,9.12885806 46.8369494,8.77570323 46.9052006,8.38234839 C47.03856,7.58050968 47.7156845,7.01987097 48.5531097,7.01987097 C48.9706997,7.01987097 49.31016,7.15343871 49.5337727,7.40544516 C49.7587325,7.66004516 49.8476388,8.01536129 49.7825306,8.4069871 L49.7825306,8.4069871 Z M53.5659861,3.12522581 L52.3055826,10.8444903 C52.2938919,10.9155564 52.3151129,10.9879868 52.3636547,11.0426986 C52.4121965,11.0974105 52.4831907,11.1289161 52.5579327,11.1289161 L53.8250715,11.1289161 C54.0356626,11.1289161 54.2143732,10.9819484 54.2467027,10.7818129 L55.4895943,3.20173548 C55.5012709,3.13062868 55.4800586,3.05816248 55.4315337,3.00338659 C55.3830089,2.9486107 55.3120258,2.91700482 55.2372442,2.91687742 L53.8183362,2.91687742 C53.6925073,2.91730633 53.585598,3.00557412 53.5659861,3.12522581 L53.5659861,3.12522581 Z" id="Shape" fill="#179BD7"></path>
                            <path d="M3.26255253,12.6020516 L3.49739079,11.1660903 L2.9742807,11.1544194 L0.476373901,11.1544194 L2.21229116,0.558477419 C2.22297265,0.491562104 2.28295862,0.442275293 2.35328392,0.442630331 L6.56510592,0.442630331 C7.96335898,0.442630331 8.92830626,0.722735484 9.43210842,1.27559355 C9.66829375,1.53494839 9.81871596,1.80597419 9.89145745,2.10423226 C9.96779111,2.4171871 9.96913818,2.79109032 9.8946006,3.24712258 L9.88921234,3.28040645 L9.88921234,3.5726129 L10.1253977,3.70142581 C10.3057054,3.78936441 10.4677768,3.90832108 10.6036056,4.05241935 C10.8056653,4.27416774 10.9363306,4.556 10.9915602,4.89013548 C11.0485859,5.23378065 11.029727,5.64269677 10.9363306,6.10564516 C10.8285654,6.6381871 10.654345,7.102 10.4190578,7.48152258 C10.2114607,7.8215136 9.93233813,8.1159815 9.59959345,8.34603871 C9.28707446,8.55957419 8.91573365,8.72167097 8.49589852,8.8254129 C8.08908501,8.92742581 7.62524576,8.97886452 7.11650436,8.97886452 L6.78871864,8.97886452 C6.5543294,8.97886452 6.32667548,9.06012903 6.14796491,9.2058 C5.96950772,9.3530253 5.85112329,9.55644623 5.81389289,9.77983871 L5.78919671,9.90908387 L5.37430081,12.4399548 L5.3554419,12.5328903 C5.35050267,12.5622839 5.34197126,12.5769806 5.32939865,12.5869226 C5.31721937,12.596511 5.3020246,12.601844 5.28629259,12.6020516 L3.26255253,12.6020516 Z" id="Path" fill="#253B80"></path>
                            <path d="M10.3490104,3.31412258 C10.3364378,3.39149677 10.3220691,3.4706 10.3059043,3.55186452 C9.75046469,6.29713548 7.85020555,7.24550968 5.42324415,7.24550968 L4.18753689,7.24550968 C3.89073365,7.24550968 3.64062866,7.45299355 3.59437944,7.73482581 L2.9617081,11.5974839 L2.78254851,12.6923935 C2.76810507,12.7802875 2.79434932,12.8698636 2.8543719,12.9375389 C2.91439447,13.0052141 3.00218054,13.0442516 3.09461847,13.0442516 L5.28629259,13.0442516 C5.54582703,13.0442516 5.76629661,12.8627032 5.80715757,12.6163161 L5.8287106,12.5091161 L6.24136139,9.9881871 L6.26785366,9.84986452 C6.3082656,9.6026129 6.5291842,9.42106452 6.78871864,9.42106452 L7.11650436,9.42106452 C9.2399272,9.42106452 10.9022049,8.59112903 11.3880462,6.18950323 C11.591004,5.18623226 11.4859329,4.34851613 10.9489032,3.75934839 C10.7786927,3.57709242 10.5754082,3.4262196 10.3490104,3.31412258 L10.3490104,3.31412258 Z" id="Path" fill="#179BD7"></path>
                            <path d="M9.76797653,3.09107742 C9.59062486,3.04168813 9.4102075,3.0031403 9.22780362,2.97566452 C8.86738299,2.92234197 8.50312095,2.89675774 8.13847738,2.89915484 L4.83727105,2.89915484 C4.57768174,2.8990008 4.35672369,3.08102165 4.31685509,3.32795484 L3.61458541,7.60990323 L3.59437944,7.73482581 C3.63958565,7.45316413 3.89148036,7.24536746 4.18753689,7.24550968 L5.42324415,7.24550968 C7.85020555,7.24550968 9.75046469,6.29670323 10.3059043,3.55186452 C10.3225181,3.4706 10.3364378,3.39149677 10.3490104,3.31412258 C10.2024432,3.24013235 10.0496898,3.17810219 9.89235549,3.12868387 C9.85110752,3.11550858 9.80964252,3.10297148 9.76797653,3.09107742 L9.76797653,3.09107742 Z" id="Path" fill="#222D65"></path>
                            <path d="M4.31685509,3.32795484 C4.35639074,3.0809079 4.57761705,2.89881084 4.83727105,2.8995871 L8.13847738,2.8995871 C8.52957513,2.8995871 8.89462964,2.92422581 9.22780362,2.97609677 C9.45326071,3.01020723 9.6756044,3.06122487 9.89280452,3.12868387 C10.0566974,3.1809871 10.2089157,3.2428 10.3494594,3.31412258 C10.5146993,2.2996129 10.3481124,1.60886452 9.77830402,0.983387097 C9.1501229,0.2948 8.01634352,0 6.56555494,0 L2.35373294,0 C2.05737873,0 1.8045796,0.207483871 1.75877941,0.489748387 L0.00445226791,11.1946194 C-0.0120844922,11.2952003 0.0179181962,11.3977113 0.0865681026,11.4751869 C0.155218009,11.5526624 0.255642337,11.5973461 0.361424388,11.5974839 L2.9617081,11.5974839 L3.61458541,7.60990323 L4.31685509,3.32795484 Z" id="Path" fill="#253B80"></path>
                        </g>
                    </g>
                </g>
            </g>
        </g>
    </g>
</svg>